<svg width="24" height="24" fill="none" xmlns="http://www.w3.org/2000/svg"><g clip-path="url(#a)"><path fill-rule="evenodd" clip-rule="evenodd" d="M19.556 2A2.445 2.445 0 0 1 22 4.444v15.113A2.445 2.445 0 0 1 19.556 22h-4.158v-7.536h2.601l.495-3.227h-3.096V9.142c0-.882.432-1.743 1.82-1.743h1.407V4.65s-1.278-.218-2.5-.218c-2.55 0-4.216 1.546-4.216 4.344v2.46H9.073v3.227h2.835V22H4.444A2.445 2.445 0 0 1 2 19.556V4.444A2.445 2.445 0 0 1 4.444 2h15.113Z" fill="#B9BADB"/></g><defs><clipPath id="a"><path fill="#fff" transform="translate(2 2)" d="M0 0h20v20H0z"/></clipPath></defs></svg>