<svg width="42" height="42" fill="none" xmlns="http://www.w3.org/2000/svg"><circle cx="21" cy="21" r="19" fill="url(#a)"/><g filter="url(#b)"><circle cx="21" cy="21" r="20" fill="#72DC60" fill-opacity=".35"/><circle cx="21" cy="21" r="20.25" stroke="url(#c)" stroke-width=".5" stroke-linecap="round" stroke-linejoin="round"/></g><g filter="url(#d)" fill="#fff"><mask id="e"><path d="M18.86 27c-.404 0-.808-.157-1.117-.473l-4.28-4.383a1.642 1.642 0 0 1 0-2.285 1.55 1.55 0 0 1 2.231-.002L18.86 23.1l7.446-7.625a1.55 1.55 0 0 1 2.231 0 1.644 1.644 0 0 1 0 2.287l-8.56 8.766A1.554 1.554 0 0 1 18.86 27Z"/></mask><path d="M18.86 27c-.404 0-.808-.157-1.117-.473l-4.28-4.383a1.642 1.642 0 0 1 0-2.285 1.55 1.55 0 0 1 2.231-.002L18.86 23.1l7.446-7.625a1.55 1.55 0 0 1 2.231 0 1.644 1.644 0 0 1 0 2.287l-8.56 8.766A1.554 1.554 0 0 1 18.86 27Z" fill-opacity=".9"/><path d="m13.463 19.859.054.053-.054-.053Zm5.397 3.24-.054.052.054.056.054-.056-.054-.052Zm9.677-5.338-.054-.053.054.053Zm-8.56 8.766.053.053-.054-.053Zm-1.117.398a1.48 1.48 0 0 1-1.063-.45l-.108.105c.323.33.747.495 1.17.495v-.15Zm-1.063-.45-4.28-4.384-.108.105 4.28 4.384.108-.106Zm-4.28-4.384a1.566 1.566 0 0 1 0-2.18l-.108-.105a1.717 1.717 0 0 0 0 2.39l.108-.105Zm0-2.18a1.475 1.475 0 0 1 2.123-.001l.108-.106a1.626 1.626 0 0 0-2.34.002l.109.106Zm2.123-.001 3.166 3.241.108-.105-3.166-3.242-.108.106Zm3.274 3.241 7.446-7.624-.108-.106-7.446 7.625.108.105Zm7.446-7.624a1.475 1.475 0 0 1 2.123 0l.108-.106a1.626 1.626 0 0 0-2.339 0l.108.106Zm2.123 0a1.569 1.569 0 0 1 0 2.18l.108.106a1.72 1.72 0 0 0 0-2.392l-.108.106Zm0 2.18-8.56 8.767.107.106 8.561-8.767-.108-.105Zm-8.56 8.767c-.294.301-.679.45-1.063.45v.151a1.63 1.63 0 0 0 1.17-.495l-.108-.106Z" fill-opacity=".5" mask="url(#e)"/></g><defs><linearGradient id="a" x1="40" y1="2" x2="13.207" y2="33.336" gradientUnits="userSpaceOnUse"><stop stop-color="#9BF763"/><stop offset="1" stop-color="#26AB5B"/></linearGradient><linearGradient id="c" x1="7.367" y1="5.66" x2="35.049" y2="38.959" gradientUnits="userSpaceOnUse"><stop stop-color="#fff" stop-opacity=".25"/><stop offset="1" stop-color="#fff" stop-opacity="0"/></linearGradient><filter id="b" x="-8.55" y="-8.55" width="59.1" height="59.1" filterUnits="userSpaceOnUse" color-interpolation-filters="sRGB"><feFlood flood-opacity="0" result="BackgroundImageFix"/><feGaussianBlur in="BackgroundImageFix" stdDeviation="4.525"/><feComposite in2="SourceAlpha" operator="in" result="effect1_backgroundBlur_1_800"/><feBlend in="SourceGraphic" in2="effect1_backgroundBlur_1_800" result="shape"/></filter><filter id="d" x="7.344" y="9.344" width="27.313" height="23.313" filterUnits="userSpaceOnUse" color-interpolation-filters="sRGB"><feFlood flood-opacity="0" result="BackgroundImageFix"/><feGaussianBlur in="BackgroundImageFix" stdDeviation="2.828"/><feComposite in2="SourceAlpha" operator="in" result="effect1_backgroundBlur_1_800"/><feColorMatrix in="SourceAlpha" values="0 0 0 0 0 0 0 0 0 0 0 0 0 0 0 0 0 0 127 0" result="hardAlpha"/><feOffset dx="1.885" dy="1.885"/><feGaussianBlur stdDeviation="1.885"/><feColorMatrix values="0 0 0 0 0.454902 0 0 0 0 0.870588 0 0 0 0 0.376471 0 0 0 0.5 0"/><feBlend in2="effect1_backgroundBlur_1_800" result="effect2_dropShadow_1_800"/><feBlend in="SourceGraphic" in2="effect2_dropShadow_1_800" result="shape"/></filter></defs></svg>