<svg width="190" height="32" fill="none" xmlns="http://www.w3.org/2000/svg"><path d="M52.77 8h4.057v22.154H52.77v-8.146c-1.195 1.53-2.894 2.296-5.096 2.296-2.117 0-3.931-.797-5.44-2.39C40.743 20.298 40 18.327 40 16s.744-4.288 2.233-5.882c1.51-1.614 3.324-2.422 5.442-2.422 2.201 0 3.9.766 5.095 2.297V8Zm-7.486 11.208c.839.818 1.887 1.227 3.145 1.227s2.296-.409 3.114-1.227C52.361 18.37 52.77 17.3 52.77 16c0-1.3-.409-2.359-1.227-3.177-.818-.838-1.855-1.258-3.114-1.258-1.258 0-2.306.42-3.145 1.258-.818.818-1.227 1.877-1.227 3.177s.41 2.37 1.227 3.208ZM70.918 8h4.057v16h-4.057v-1.898c-.986 1.468-2.548 2.202-4.687 2.202-1.72 0-3.145-.577-4.278-1.73-1.11-1.154-1.667-2.747-1.667-4.781V8h4.058v9.29c0 1.048.283 1.855.85 2.422.565.545 1.32.817 2.264.817 1.048 0 1.887-.325 2.516-.975.629-.65.944-1.625.944-2.925V8ZM90.643 8h4.058v16h-4.058v-1.992c-1.216 1.53-2.925 2.296-5.127 2.296-2.097 0-3.9-.797-5.41-2.39-1.488-1.615-2.233-3.586-2.233-5.914s.745-4.288 2.233-5.882c1.51-1.614 3.314-2.422 5.41-2.422 2.202 0 3.911.766 5.127 2.297V8Zm-7.486 11.208c.818.818 1.856 1.227 3.114 1.227 1.258 0 2.296-.409 3.114-1.227.839-.838 1.258-1.908 1.258-3.208 0-1.3-.42-2.359-1.258-3.177-.818-.838-1.856-1.258-3.114-1.258-1.258 0-2.296.42-3.114 1.258-.817.818-1.226 1.877-1.226 3.177s.409 2.37 1.226 3.208ZM110.301 1.846h4.057V24h-4.057v-1.992c-1.196 1.53-2.894 2.296-5.096 2.296-2.118 0-3.931-.797-5.441-2.39-1.489-1.615-2.233-3.586-2.233-5.914s.744-4.288 2.233-5.882c1.51-1.614 3.323-2.422 5.441-2.422 2.202 0 3.9.766 5.096 2.297V1.846Zm-7.486 17.362c.839.818 1.887 1.227 3.145 1.227s2.296-.409 3.114-1.227c.818-.838 1.227-1.908 1.227-3.208 0-1.3-.409-2.359-1.227-3.177-.818-.838-1.856-1.258-3.114-1.258-1.258 0-2.306.42-3.145 1.258-.818.818-1.227 1.877-1.227 3.177s.409 2.37 1.227 3.208ZM125.555 24.304c-2.37 0-4.351-.797-5.945-2.39-1.573-1.594-2.359-3.566-2.359-5.914s.786-4.32 2.359-5.913c1.594-1.594 3.575-2.39 5.945-2.39 1.53 0 2.925.366 4.183 1.1 1.258.734 2.212 1.72 2.862 2.957l-3.491 2.044a3.539 3.539 0 0 0-1.447-1.54c-.629-.378-1.342-.567-2.139-.567-1.216 0-2.223.409-3.019 1.227-.797.796-1.196 1.824-1.196 3.082 0 1.237.399 2.265 1.196 3.082.796.797 1.803 1.196 3.019 1.196.818 0 1.541-.179 2.17-.535a3.532 3.532 0 0 0 1.447-1.541l3.523 2.013c-.692 1.237-1.667 2.233-2.925 2.988-1.258.734-2.653 1.1-4.183 1.1ZM147.962 21.913c-1.614 1.594-3.586 2.39-5.913 2.39-2.328 0-4.299-.796-5.913-2.39-1.594-1.614-2.391-3.585-2.391-5.913 0-2.328.797-4.288 2.391-5.882 1.614-1.614 3.585-2.422 5.913-2.422 2.327 0 4.299.808 5.913 2.422 1.615 1.594 2.422 3.554 2.422 5.882s-.807 4.299-2.422 5.913Zm-8.964-2.8c.818.819 1.835 1.227 3.051 1.227 1.216 0 2.233-.408 3.051-1.226.818-.818 1.227-1.856 1.227-3.114 0-1.258-.409-2.296-1.227-3.114-.818-.818-1.835-1.226-3.051-1.226-1.216 0-2.233.408-3.051 1.226-.797.818-1.195 1.856-1.195 3.114 0 1.258.398 2.296 1.195 3.114ZM165.159 1.846h4.057V24h-4.057v-1.992c-1.195 1.53-2.894 2.296-5.095 2.296-2.118 0-3.932-.797-5.442-2.39-1.488-1.615-2.233-3.586-2.233-5.914s.745-4.288 2.233-5.882c1.51-1.614 3.324-2.422 5.442-2.422 2.201 0 3.9.766 5.095 2.297V1.846Zm-7.486 17.362c.839.818 1.887 1.227 3.146 1.227 1.258 0 2.296-.409 3.113-1.227.818-.838 1.227-1.908 1.227-3.208 0-1.3-.409-2.359-1.227-3.177-.817-.838-1.855-1.258-3.113-1.258-1.259 0-2.307.42-3.146 1.258-.818.818-1.226 1.877-1.226 3.177s.408 2.37 1.226 3.208ZM176.356 17.667c.545 1.971 2.023 2.957 4.434 2.957 1.552 0 2.726-.525 3.523-1.573l3.271 1.887c-1.551 2.244-3.837 3.366-6.856 3.366-2.601 0-4.687-.787-6.26-2.36-1.572-1.572-2.359-3.553-2.359-5.944 0-2.37.776-4.34 2.328-5.913 1.552-1.594 3.544-2.39 5.976-2.39 2.307 0 4.204.796 5.693 2.39 1.51 1.594 2.265 3.565 2.265 5.913 0 .524-.053 1.08-.158 1.667h-11.857Zm-.063-3.145h8.02c-.23-1.07-.713-1.867-1.447-2.39-.713-.525-1.53-.787-2.453-.787-1.09 0-1.992.283-2.705.85-.713.544-1.185 1.32-1.415 2.327Z" fill="#fff"/><path fill-rule="evenodd" clip-rule="evenodd" d="M32 13.72c-.069-1.21-.648-2.399-1.644-3.266l-10.133-8.86a6.426 6.426 0 0 0-8.473 0l-10.151 8.86C.463 11.457 0 12.84 0 14.24v4.04a4.688 4.688 0 0 0 1.599 3.283l9.829 8.57.321.273a6.426 6.426 0 0 0 8.474 0l.322-.272 9.828-8.57A4.86 4.86 0 0 0 32 18.28v-4.56Z" fill="#E62334"/><path fill-rule="evenodd" clip-rule="evenodd" d="m19.155 2.818 10.15 8.86a3.081 3.081 0 0 1 0 4.642l-5.947 5.187L8.868 8.872a.39.39 0 0 0-.525 0l-4.626 4.03a1.461 1.461 0 0 0 0 2.194l10.15 8.86a3.233 3.233 0 0 0 4.237 0l1.576-1.378 1.237 1.071-1.762 1.53a4.849 4.849 0 0 1-6.355 0L2.65 16.32c-1.39-1.224-1.39-3.418 0-4.642l10.15-8.86a4.849 4.849 0 0 1 6.355 0ZM8.597 12.92l8.61 7.516-.967.85a.389.389 0 0 1-.516.008l-.01-.008-7.998-6.988a.404.404 0 0 1-.009-.604l.01-.008.88-.766Zm5.27-8.893-3.677 3.23c-.186.154-.186.443 0 .613l12.913 11.257a.39.39 0 0 0 .525 0l4.627-4.03c.66-.578.66-1.616 0-2.194l-4.627-4.03a.39.39 0 0 0-.525 0l-1.847 1.616c-.186.153-.186.442 0 .612L24.24 13.7c.186.153.186.442 0 .613l-.881.765-8.592-7.516.966-.85a.39.39 0 0 1 .525 0l3.152 2.754a.39.39 0 0 0 .525 0l1.848-1.615c.186-.153.186-.442 0-.612l-3.678-3.214a3.233 3.233 0 0 0-4.236 0Z" fill="#fff"/></svg>