<svg width="24" height="24" fill="none" xmlns="http://www.w3.org/2000/svg"><path fill-rule="evenodd" clip-rule="evenodd" d="M4 2a2 2 0 0 0-2 2v16a2 2 0 0 0 2 2h16a2 2 0 0 0 2-2V4a2 2 0 0 0-2-2H4Zm14.915 4.425-2.35 11.303a.376.376 0 0 1-.589.227l-3.208-2.328a.53.53 0 0 0-.646.018l-1.779 1.45a.376.376 0 0 1-.596-.18l-.944-3.035a2 2 0 0 0-1.21-1.28l-2.272-.847a.376.376 0 0 1-.003-.704L18.41 6a.376.376 0 0 1 .504.426Z" fill="#B9BADB"/><path fill-rule="evenodd" clip-rule="evenodd" d="m15.825 8.02-6.513 4.358a.742.742 0 0 0-.287.801l.704 2.688c.05.19.305.171.33-.026l.182-1.474c.035-.277.157-.533.346-.724l5.375-5.428c.101-.101-.02-.273-.136-.195Z" fill="#B9BADB"/></svg>